<?xml version="1.0" encoding="utf-8"?>
<!-- Generator: Adobe Illustrator 15.1.0, SVG Export Plug-In  -->
<!DOCTYPE svg PUBLIC "-//W3C//DTD SVG 1.1//EN" "http://www.w3.org/Graphics/SVG/1.1/DTD/svg11.dtd" [
	<!ENTITY ns_flows "http://ns.adobe.com/Flows/1.0/">
]>
<svg version="1.1"
	 xmlns="http://www.w3.org/2000/svg" xmlns:xlink="http://www.w3.org/1999/xlink" xmlns:a="http://ns.adobe.com/AdobeSVGViewerExtensions/3.0/"
	 x="0px" y="0px" width="175px" height="80px" viewBox="-6.967 -2.542 175 80" enable-background="new -6.967 -2.542 175 80"
	 xml:space="preserve">
<defs>
</defs>
<path fill="#515251" d="M34.999,37.074h116.563c0,0,5.666,8.181,0,16.165h-8.174v12.566h-10.131l-0.137-12.771h-2.996v12.771H120.07
	V53.034H34.999V37.074z"/>
<ellipse fill="#515251" cx="28.177" cy="34.316" rx="13.787" ry="15.267"/>
<path fill="#515251" d="M41.965,55.247c0,8.428-6.175,15.266-13.789,15.266c-7.614,0-13.787-6.838-13.787-15.266
	c0-8.43,6.173-15.266,13.787-15.266C35.791,39.981,41.965,46.817,41.965,55.247z"/>
<path fill="#515251" d="M21.303,44.418c0,6.205-4.544,11.234-10.146,11.234c-5.603,0-10.145-5.029-10.145-11.234
	c0-6.2,4.542-11.23,10.145-11.23C16.759,33.188,21.303,38.218,21.303,44.418z"/>
<path fill="#E27226" d="M33.986,37.989h116.563c0,0,5.666,8.182,0,16.166h-8.174v12.566h-10.131l-0.137-12.772h-2.996v12.772
	h-10.055V53.949H33.986V37.989z"/>
<ellipse fill="#E27226" cx="27.164" cy="35.232" rx="13.787" ry="15.266"/>
<path fill="#E27226" d="M40.953,56.162c0,8.429-6.175,15.267-13.789,15.267c-7.614,0-13.787-6.838-13.787-15.267
	s6.173-15.265,13.787-15.265C34.778,40.897,40.953,47.733,40.953,56.162z"/>
<path fill="#FBB03E" d="M33.986,38.973h115.579c0,0,5.668,5.214,0,14.197h-8.174v12.567h-8.162l-0.139-12.772h-4.961v12.772h-8.09
	V52.965H33.986V38.973z"/>
<path fill="#E27226" d="M20.291,45.334c0,6.204-4.544,11.233-10.146,11.233C4.542,56.568,0,51.539,0,45.334
	c0-6.201,4.542-11.231,10.145-11.231C15.747,34.103,20.291,39.133,20.291,45.334z"/>
<ellipse fill="#FBB03E" cx="27.146" cy="35.655" rx="12.856" ry="14.673"/>
<path fill="#FBB03E" d="M40.001,55.691c0,8.102-5.758,14.674-12.857,14.674c-7.101,0-12.856-6.572-12.856-14.674
	c0-8.101,5.755-14.67,12.856-14.67C34.244,41.021,40.001,47.59,40.001,55.691z"/>
<ellipse fill="#FBB03E" cx="10.454" cy="45.334" rx="9.72" ry="10.358"/>
<path fill="#E27226" d="M35.014,57.867c0,4.911-3.596,8.891-8.032,8.891s-8.033-3.979-8.033-8.891c0-4.913,3.597-8.896,8.033-8.896
	S35.014,52.954,35.014,57.867z"/>
<path fill="#E27226" d="M35.546,33.169c0,4.911-3.597,8.891-8.033,8.891s-8.033-3.979-8.033-8.891c0-4.913,3.597-8.896,8.033-8.896
	S35.546,28.256,35.546,33.169z"/>
<ellipse fill="#515351" cx="26.981" cy="56.969" rx="7.538" ry="8.319"/>
<ellipse fill="#515351" cx="27.486" cy="32.707" rx="7.538" ry="8.318"/>
<ellipse fill="#5C9CCC" cx="26.513" cy="57.348" rx="7.565" ry="8.373"/>
<ellipse fill="#5C9CCC" cx="27.164" cy="33.166" rx="7.565" ry="8.377"/>
<path fill="#E27226" d="M17.267,45.504c0,3.805-2.603,6.889-5.813,6.889c-3.21,0-5.813-3.084-5.813-6.889
	c0-3.808,2.603-6.894,5.813-6.894C14.665,38.611,17.267,41.697,17.267,45.504z"/>
<ellipse fill="#515351" cx="10.611" cy="44.907" rx="5.736" ry="6.646"/>
<ellipse fill="#5C9CCC" cx="10.145" cy="45.337" rx="6.005" ry="6.647"/>
<path fill="#F79D26" d="M35.007,40.022h113.975l1.492,1.898H33.049C33.049,41.92,35.007,41.294,35.007,40.022z"/>
<path fill="#F79D26" d="M32.768,43.782h113.976l1.492,1.334H30.81C30.81,45.116,32.768,44.676,32.768,43.782z"/>
<path fill="#FFFFFF" stroke="#FFFFFF" stroke-width="1.245" stroke-miterlimit="10" d="M18.927,32.537
	c0.001-0.314,0.019-0.799,0.056-1.457c0.037-0.656,0.119-1.32,0.248-1.99c0.129-0.669,0.315-1.254,0.559-1.753
	c0.243-0.498,0.561-0.747,0.952-0.744c0.208,0,0.454,0.052,0.743,0.151c0.288,0.104,0.431,0.312,0.431,0.623
	c-0.37,0.341-0.682,0.784-0.937,1.324c-0.279,0.428-0.51,0.969-0.698,1.625c-0.186,0.657-0.279,1.413-0.283,2.268
	c-0.004,1.199,0.09,2.293,0.282,3.279c0.191,0.986,0.517,1.827,0.975,2.531c0.459,0.701,1.044,1.253,1.756,1.66
	c0.713,0.404,1.587,0.608,2.625,0.61c1.105,0.008,2.177-0.232,3.214-0.712c1.039-0.48,2.007-1.133,2.909-1.955
	c0.9-0.824,1.717-1.791,2.444-2.9c0.729-1.111,1.355-2.301,1.878-3.567c0.522-1.269,0.93-2.571,1.223-3.914
	c0.292-1.34,0.439-2.667,0.445-3.981c-0.69-0.002-1.348,0.064-1.97,0.205s-1.266,0.207-1.935,0.205
	c-0.552-0.003-1.104-0.084-1.657-0.244c-0.552-0.158-1.052-0.418-1.499-0.779c-0.449-0.358-0.815-0.824-1.102-1.397
	c-0.286-0.571-0.426-1.287-0.424-2.144c0.001-0.514,0.158-0.92,0.47-1.22c0.312-0.297,0.675-0.524,1.089-0.679
	c0.417-0.154,0.841-0.252,1.28-0.292c0.437-0.042,0.782-0.06,1.037-0.06c1.243,0.006,2.273,0.24,3.089,0.699
	c0.815,0.462,1.636,1.309,2.461,2.541l0.383-0.941c0.023-0.057,0.094-0.422,0.211-1.092c0.117-0.668,0.253-1.46,0.406-2.373
	c0.151-0.914,0.312-1.842,0.476-2.784c0.165-0.94,0.281-1.696,0.352-2.267c0.047-0.086,0.047-0.293,0.002-0.621
	c-0.043-0.328-0.068-0.536-0.066-0.621c-0.553,0.026-1.25,0.1-2.091,0.225c-0.841,0.123-1.682,0.249-2.522,0.373
	c-0.841,0.122-1.624,0.22-2.35,0.287c-0.726,0.067-1.261,0.066-1.607-0.008c-0.346-0.072-0.43-0.251-0.256-0.535
	c0.173-0.285,0.732-0.711,1.679-1.278c0.506,0.003,1.087,0.028,1.743,0.073c0.656,0.046,1.313,0.057,1.97,0.031
	c0.656-0.023,1.285-0.123,1.883-0.291c0.6-0.167,1.142-0.437,1.627-0.805c0.277-0.229,0.508-0.569,0.694-1.025
	c0.186-0.455,0.36-0.955,0.523-1.496s0.311-1.09,0.438-1.648c0.129-0.558,0.292-1.053,0.489-1.495
	c0.198-0.444,0.445-0.812,0.746-1.11c0.302-0.299,0.67-0.447,1.108-0.445c0.438,0.004,0.684,0.184,0.74,0.539
	c0.057,0.359,0.084,0.766,0.083,1.222c-0.001,0.515-0.096,1.036-0.282,1.563c-0.186,0.528-0.424,1.026-0.713,1.497
	c-0.289,0.468-0.613,0.91-0.971,1.321c-0.358,0.412-0.699,0.775-1.024,1.087l-2.218,12.625l-0.001,0.299
	c1.612,0.009,3.185-0.418,4.72-1.281c1.532-0.862,2.994-1.979,4.38-3.34c1.386-1.364,2.663-2.85,3.833-4.458
	c1.168-1.606,2.192-3.151,3.073-4.634l0.726,0.006l-0.003,0.857c0,0.059-0.128,0.297-0.383,0.725
	c-0.255,0.427-0.555,0.926-0.902,1.495c-0.348,0.57-0.707,1.153-1.078,1.751c-0.37,0.598-0.67,1.082-0.902,1.451
	c-0.789,1.195-1.695,2.277-2.723,3.242c-1.028,0.966-2.125,1.83-3.291,2.598c-1.166,0.764-2.354,1.438-3.565,2.016
	c-1.211,0.579-2.394,1.082-3.545,1.502l-0.002,0.215l0,0.214c0.343,0.802,0.798,1.884,1.37,3.241
	c0.571,1.358,1.217,2.883,1.937,4.572c0.721,1.689,1.491,3.482,2.313,5.387c0.823,1.903,1.685,3.784,2.589,5.646
	c0.904,1.86,1.818,3.651,2.744,5.367c0.928,1.719,1.843,3.226,2.748,4.514c0.907,1.289,1.789,2.322,2.649,3.097
	c0.863,0.773,1.66,1.164,2.398,1.164c1.335,0.01,2.538-0.142,3.611-0.451c1.072-0.311,2.081-0.774,3.027-1.399
	c0.947-0.623,1.846-1.389,2.701-2.299c0.854-0.91,1.711-1.944,2.566-3.112c0.347-0.515,0.621-1.035,0.818-1.56
	c0.196-0.527,0.299-1.121,0.299-1.775c0.004-0.717-0.109-1.345-0.338-1.886c-0.229-0.547-0.537-1.04-0.928-1.482
	c-0.39-0.446-0.827-0.818-1.308-1.121c-0.484-0.305-0.965-0.556-1.449-0.759l0.004-0.556c0.713,0.003,1.393,0.135,2.035,0.396
	c0.643,0.26,1.194,0.626,1.653,1.101c0.461,0.475,0.814,1.069,1.065,1.783c0.25,0.714,0.375,1.529,0.372,2.444
	c-0.005,1.138-0.232,2.249-0.687,3.315c-0.45,1.067-1.049,2.066-1.786,2.988c-0.741,0.926-1.589,1.762-2.549,2.514
	c-0.958,0.753-1.945,1.395-2.96,1.938c-1.015,0.536-2.024,0.944-3.027,1.224c-1.002,0.282-1.906,0.42-2.714,0.413
	c-0.828,0.028-1.708-0.336-2.638-1.078c-0.93-0.751-1.876-1.763-2.84-3.037c-0.962-1.273-1.941-2.758-2.938-4.447
	c-0.995-1.689-1.968-3.456-2.917-5.305c-0.949-1.846-1.87-3.714-2.76-5.604c-0.893-1.888-1.717-3.669-2.469-5.343
	c-0.754-1.677-1.452-3.178-2.092-4.508c-0.641-1.331-1.167-2.369-1.579-3.113c-0.045,0.027-0.116,0.099-0.208,0.213
	c-0.091,0.111-0.139,0.199-0.139,0.256c-0.719,1.939-1.451,3.868-2.196,5.791c-0.743,1.926-1.624,3.649-2.643,5.172
	c-1.019,1.522-2.22,2.766-3.604,3.727c-1.386,0.966-3.069,1.444-5.049,1.435l-2.177-0.012c-0.85-0.289-1.557-0.777-2.118-1.468
	c-0.562-0.687-1.004-1.461-1.322-2.318c-0.32-0.858-0.553-1.782-0.699-2.766C18.994,34.443,18.922,33.478,18.927,32.537z
	 M30.575,19.746c-0.001,0.513,0.102,0.963,0.308,1.351c0.206,0.385,0.463,0.694,0.772,0.924c0.311,0.231,0.656,0.404,1.036,0.519
	c0.38,0.115,0.754,0.175,1.122,0.178c0.253,0.002,0.547,0.018,0.883,0.047c0.332,0.029,0.672,0.025,1.017-0.017
	c0.345-0.041,0.645-0.13,0.898-0.274c0.255-0.142,0.427-0.368,0.521-0.683c-0.365-1.115-0.932-1.853-1.702-2.214
	c-0.769-0.361-1.593-0.543-2.468-0.548c-0.46-0.06-0.863-0.075-1.208-0.05c-0.301,0.027-0.57,0.09-0.813,0.189
	C30.699,19.267,30.576,19.458,30.575,19.746z M44.073,2.464c-0.253,0.168-0.439,0.467-0.557,0.896
	C43.4,3.789,43.34,4.172,43.34,4.515l0.035,0.172c0.255-0.313,0.438-0.582,0.555-0.811c0.116-0.228,0.174-0.541,0.176-0.942
	c0-0.058,0-0.134,0.001-0.234C44.107,2.6,44.096,2.521,44.073,2.464z"/>
<path fill="#FFFFFF" stroke="#FFFFFF" stroke-width="1.245" stroke-miterlimit="10" d="M49.084,32.001
	c-0.066-1.057,0.025-2.191,0.271-3.404c0.246-1.213,0.63-2.324,1.152-3.334c0.521-1.012,1.164-1.859,1.926-2.54
	c0.762-0.683,1.592-1.021,2.491-1.017c0.322,0.002,0.585,0.125,0.791,0.369c0.208,0.243,0.311,0.565,0.309,0.963
	c-0.003,0.943-0.208,1.871-0.614,2.783c-0.407,0.912-0.899,1.779-1.478,2.604c-0.578,0.827-1.186,1.595-1.82,2.306
	c-0.637,0.711-1.163,1.32-1.579,1.834c0,0.028-0.006,0.092-0.019,0.193c-0.01,0.099-0.019,0.176-0.018,0.234
	c-0.001,0.456,0.102,0.857,0.307,1.201c0.207,0.343,0.464,0.623,0.776,0.84c0.31,0.215,0.642,0.381,0.999,0.496
	c0.356,0.115,0.684,0.175,0.983,0.176c0.921,0.006,1.727-0.099,2.419-0.307c0.691-0.213,1.331-0.537,1.921-0.979
	c0.588-0.438,1.142-0.972,1.662-1.598c0.521-0.623,1.06-1.321,1.614-2.09c0.163-0.229,0.262-0.398,0.295-0.513
	c0.035-0.113,0.059-0.215,0.071-0.3c0.012-0.085,0.04-0.164,0.087-0.236c0.046-0.07,0.15-0.176,0.313-0.318
	c0.183,0.086,0.292,0.216,0.326,0.387c0.032,0.172,0.05,0.343,0.05,0.516c-0.188,0.826-0.569,1.703-1.149,2.627
	c-0.581,0.926-1.272,1.771-2.081,2.539c-0.81,0.768-1.687,1.384-2.632,1.849c-0.946,0.467-1.879,0.619-2.8,0.46
	c-0.92-0.163-1.783-0.68-2.585-1.557C50.271,35.313,49.606,33.916,49.084,32.001z M54.986,23.462
	c-0.576-0.002-1.135,0.21-1.678,0.635c-0.542,0.426-1.022,0.959-1.439,1.6s-0.752,1.339-1.008,2.094
	c-0.257,0.755-0.386,1.434-0.386,2.032c0,0.06,0.003,0.216,0.014,0.473s0.028,0.414,0.051,0.471c0.415-0.28,0.882-0.702,1.402-1.257
	c0.521-0.553,1.006-1.172,1.458-1.855c0.451-0.684,0.828-1.389,1.13-2.115C54.83,24.812,54.983,24.121,54.986,23.462z"/>
<path fill="#FFFFFF" stroke="#FFFFFF" stroke-width="1.245" stroke-miterlimit="10" d="M61.587,32.062
	c-0.064-1.055,0.025-2.19,0.272-3.402c0.245-1.213,0.631-2.325,1.151-3.334c0.522-1.012,1.164-1.858,1.926-2.541
	c0.763-0.681,1.593-1.02,2.491-1.016c0.322,0.002,0.585,0.125,0.791,0.368c0.206,0.243,0.309,0.564,0.309,0.964
	c-0.003,0.943-0.208,1.871-0.612,2.782c-0.408,0.913-0.898,1.78-1.479,2.604c-0.577,0.826-1.184,1.596-1.82,2.307
	c-0.638,0.71-1.162,1.32-1.58,1.834c0,0.027-0.005,0.092-0.018,0.193c-0.012,0.1-0.018,0.176-0.018,0.232
	c-0.002,0.457,0.101,0.858,0.307,1.204c0.204,0.343,0.463,0.621,0.774,0.837c0.31,0.217,0.644,0.381,1.001,0.499
	c0.356,0.114,0.683,0.173,0.982,0.175c0.921,0.006,1.729-0.1,2.42-0.309c0.693-0.211,1.331-0.535,1.922-0.977
	c0.589-0.439,1.144-0.971,1.664-1.597c0.518-0.626,1.058-1.322,1.612-2.092c0.162-0.228,0.261-0.397,0.297-0.512
	c0.033-0.114,0.057-0.215,0.067-0.301c0.014-0.083,0.044-0.163,0.089-0.235c0.046-0.068,0.152-0.175,0.312-0.318
	c0.184,0.086,0.293,0.216,0.327,0.385c0.032,0.174,0.05,0.344,0.051,0.517c-0.185,0.827-0.571,1.704-1.15,2.627
	c-0.579,0.927-1.273,1.772-2.082,2.54c-0.809,0.766-1.686,1.383-2.633,1.85c-0.944,0.465-1.877,0.619-2.797,0.459
	c-0.92-0.164-1.782-0.683-2.585-1.557C62.774,35.375,62.112,33.979,61.587,32.062z M67.49,23.526
	c-0.574-0.003-1.135,0.21-1.679,0.634c-0.542,0.427-1.022,0.959-1.438,1.601c-0.417,0.641-0.753,1.337-1.008,2.093
	c-0.256,0.755-0.386,1.434-0.388,2.031c-0.001,0.06,0.005,0.217,0.016,0.475c0.011,0.256,0.028,0.413,0.05,0.469
	c0.415-0.281,0.882-0.701,1.403-1.257c0.521-0.552,1.005-1.171,1.457-1.855c0.453-0.683,0.829-1.388,1.131-2.114
	C67.335,24.874,67.488,24.182,67.49,23.526z"/>
<path fill="#FFFFFF" stroke="#FFFFFF" stroke-width="1.245" stroke-miterlimit="10" d="M72.359,54.261
	c-0.024-0.085-0.052-0.229-0.086-0.431c-0.034-0.195-0.072-0.402-0.118-0.619c-0.046-0.219-0.085-0.426-0.119-0.643
	c-0.035-0.216-0.062-0.363-0.084-0.45c-0.272-1.489-0.337-2.909-0.193-4.268c0.142-1.353,0.388-2.674,0.738-3.954
	c0.35-1.282,0.782-2.565,1.292-3.848s1.023-2.608,1.532-3.976c0.165-0.43,0.205-0.957,0.127-1.586
	c-0.079-0.627-0.14-1.385-0.184-2.271c-0.042-0.884-0.022-1.906,0.064-3.063c0.084-1.154,0.36-2.475,0.824-3.957
	c0.276-0.085,0.49,0.011,0.638,0.281c0.149,0.273,0.245,0.623,0.292,1.052c0.044,0.429,0.049,0.9,0.013,1.413
	c-0.038,0.514-0.113,1-0.231,1.455c0.834-1.682,1.853-3.08,3.055-4.205c1.201-1.121,2.399-1.85,3.599-2.187
	c0.783,0.118,1.322,0.515,1.618,1.187c0.298,0.672,0.421,1.479,0.374,2.422c-0.049,0.941-0.242,1.955-0.58,3.037
	c-0.341,1.084-0.74,2.082-1.203,2.993c-0.467,0.911-0.955,1.694-1.477,2.348c-0.522,0.654-0.998,1.024-1.436,1.108
	c-0.092,0.256,0.033,0.355,0.377,0.301c0.344-0.056,0.807-0.211,1.384-0.465c0.578-0.254,1.222-0.57,1.938-0.953
	c0.715-0.383,1.389-0.771,2.023-1.17c0.637-0.395,1.184-0.807,1.648-1.232c0.459-0.427,0.746-0.796,0.863-1.11
	c0.049-0.455,0.143-0.662,0.281-0.618c0.135,0.043,0.191,0.242,0.17,0.6c-0.025,0.358-0.174,0.842-0.455,1.454
	c-0.277,0.613-0.809,1.269-1.596,1.964c-0.787,0.694-1.875,1.39-3.27,2.08c-1.398,0.695-3.203,1.307-5.412,1.839
	c-0.14,0.056-0.364,0.124-0.675,0.209c-0.31,0.083-0.469,0.152-0.469,0.212l-0.313,0.47c0.002,0.284-0.027,0.74-0.09,1.372
	c-0.06,0.625-0.132,1.286-0.214,1.988c-0.083,0.7-0.165,1.367-0.25,1.99c-0.081,0.629-0.135,1.072-0.158,1.33
	c-0.023,0.113-0.083,0.384-0.177,0.81c-0.092,0.431-0.199,0.901-0.313,1.411c-0.119,0.517-0.228,1.014-0.337,1.501
	c-0.102,0.484-0.18,0.857-0.225,1.107c-0.071,0.315-0.166,0.679-0.284,1.097c-0.114,0.412-0.267,0.801-0.449,1.173
	c-0.188,0.371-0.401,0.708-0.645,1.006c-0.242,0.296-0.512,0.487-0.813,0.571l-0.172-0.041c-0.069-0.006-0.213-0.102-0.433-0.304
	C72.537,54.492,72.405,54.347,72.359,54.261z M72.853,51.009c0.068,0.369,0.142,0.754,0.219,1.156
	c0.082,0.403,0.27,0.701,0.568,0.901c0.535-1.222,0.972-2.47,1.308-3.736c0.339-1.272,0.596-2.57,0.773-3.896
	c0.179-1.327,0.298-2.661,0.363-4.006c0.06-1.341,0.104-2.711,0.132-4.108c-0.555,0.911-1.083,1.92-1.583,3.033
	c-0.498,1.109-0.91,2.26-1.238,3.442c-0.328,1.183-0.541,2.386-0.65,3.614C72.636,48.637,72.674,49.835,72.853,51.009z
	 M82.546,25.058c-0.785,0.225-1.512,0.77-2.184,1.638c-0.671,0.868-1.239,1.895-1.7,3.075c-0.466,1.184-0.806,2.424-1.018,3.723
	c-0.212,1.298-0.226,2.477-0.046,3.532c0.552-0.083,1.16-0.472,1.818-1.169c0.658-0.695,1.299-1.528,1.924-2.496
	c0.629-0.967,1.178-1.985,1.652-3.053c0.475-1.07,0.801-2.023,0.979-2.865c0.174-0.842,0.157-1.506-0.048-1.994
	C83.719,24.963,83.258,24.832,82.546,25.058z"/>
<path fill="#FFFFFF" stroke="#FFFFFF" stroke-width="1.245" stroke-miterlimit="10" d="M88.429,32.197
	c-0.07-1.056,0.023-2.189,0.271-3.404c0.24-1.211,0.627-2.322,1.148-3.336c0.523-1.01,1.164-1.856,1.93-2.537
	c0.76-0.683,1.59-1.021,2.486-1.017c0.324,0.003,0.588,0.125,0.793,0.368c0.211,0.245,0.307,0.566,0.309,0.965
	c-0.004,0.943-0.207,1.871-0.613,2.783c-0.408,0.912-0.898,1.778-1.479,2.604c-0.578,0.827-1.182,1.596-1.82,2.305
	c-0.637,0.711-1.16,1.322-1.582,1.834c0.002,0.028,0,0.092-0.012,0.193c-0.014,0.102-0.021,0.176-0.021,0.234
	c0,0.457,0.1,0.857,0.307,1.201c0.207,0.345,0.467,0.623,0.773,0.84c0.311,0.215,0.646,0.381,1.002,0.497s0.684,0.175,0.984,0.176
	c0.918,0.005,1.729-0.099,2.42-0.309s1.33-0.535,1.92-0.978c0.59-0.438,1.139-0.971,1.662-1.598c0.523-0.625,1.059-1.321,1.615-2.09
	c0.162-0.229,0.258-0.398,0.293-0.514c0.039-0.111,0.059-0.213,0.07-0.299c0.014-0.086,0.043-0.162,0.092-0.234
	c0.047-0.07,0.145-0.176,0.309-0.319c0.184,0.087,0.295,0.216,0.326,0.388c0.035,0.171,0.049,0.343,0.051,0.514
	c-0.186,0.826-0.568,1.703-1.148,2.629c-0.578,0.926-1.273,1.77-2.082,2.537s-1.682,1.385-2.631,1.851
	c-0.945,0.468-1.881,0.616-2.801,0.457c-0.92-0.161-1.783-0.681-2.588-1.554C89.613,35.507,88.949,34.114,88.429,32.197z
	 M94.33,23.66c-0.576-0.004-1.135,0.209-1.676,0.633c-0.543,0.428-1.025,0.959-1.441,1.6c-0.42,0.643-0.752,1.34-1.008,2.095
	c-0.258,0.755-0.383,1.433-0.389,2.032c0.002,0.059,0.004,0.215,0.016,0.471c0.012,0.257,0.029,0.414,0.051,0.471
	c0.416-0.28,0.883-0.701,1.404-1.255c0.518-0.554,1.002-1.173,1.457-1.856c0.453-0.683,0.828-1.389,1.129-2.115
	C94.175,25.007,94.328,24.318,94.33,23.66z"/>
<path fill="#FFFFFF" stroke="#FFFFFF" stroke-width="1.245" stroke-miterlimit="10" d="M116.878,35.124
	c-0.275,0.198-0.662,0.409-1.156,0.636s-1.025,0.424-1.59,0.594c-0.568,0.167-1.131,0.264-1.695,0.291
	c-0.568,0.023-1.051-0.063-1.469-0.266c-0.412-0.199-0.723-0.537-0.928-1.011c-0.207-0.472-0.236-1.137-0.098-1.993
	c0.004-1.057,0.127-2.076,0.373-3.061c0.246-0.983,0.373-1.975,0.375-2.975c-0.254-0.002-0.596,0.032-1.021,0.102
	c-0.422,0.07-0.877,0.154-1.346,0.249c-0.473,0.101-0.93,0.206-1.363,0.315c-0.443,0.113-0.791,0.211-1.043,0.295
	c-0.256,1.6-0.592,2.947-1.012,4.043c-0.418,1.098-0.846,1.974-1.289,2.626c-0.438,0.657-0.861,1.118-1.266,1.389
	c-0.402,0.269-0.738,0.388-1.006,0.359c-0.264-0.03-0.42-0.189-0.479-0.476c-0.055-0.283,0.041-0.641,0.297-1.068
	c0.531,0.031,0.947-0.146,1.244-0.528c0.301-0.385,0.563-0.904,0.785-1.56c0.219-0.656,0.424-1.399,0.611-2.225
	c0.188-0.826,0.41-1.684,0.668-2.567c-0.188-0.086-0.383-0.195-0.588-0.325c-0.207-0.129-0.402-0.278-0.586-0.451
	c-0.186-0.172-0.332-0.387-0.445-0.645c-0.117-0.258-0.174-0.543-0.172-0.857c0-0.886,0.18-1.612,0.523-2.183
	c0.35-0.569,0.76-0.975,1.234-1.214c0.471-0.242,0.945-0.33,1.414-0.273c0.473,0.061,0.838,0.27,1.105,0.628
	c0.26,0.36,0.369,0.88,0.32,1.565c-0.045,0.686-0.361,1.481-0.939,2.395c0.115-0.027,0.428-0.121,0.934-0.275
	c0.506-0.152,1.07-0.32,1.691-0.506c0.625-0.182,1.219-0.349,1.783-0.504c0.566-0.153,0.961-0.23,1.193-0.23
	c-0.006,0.771-0.051,1.52-0.145,2.248c-0.098,0.728-0.195,1.463-0.303,2.203c-0.107,0.744-0.209,1.486-0.303,2.227
	c-0.096,0.744-0.143,1.471-0.143,2.185c0.043,0.485,0.221,0.794,0.533,0.924c0.309,0.13,0.67,0.175,1.084,0.134
	s0.871-0.137,1.363-0.292c0.498-0.155,0.959-0.288,1.389-0.401c0.426-0.111,0.775-0.15,1.053-0.123
	C116.746,34.551,116.884,34.752,116.878,35.124z M104.097,25.549c0,0.399,0.121,0.694,0.359,0.882
	c0.24,0.188,0.488,0.351,0.744,0.496c0.482-0.599,0.74-1.188,0.766-1.773c0.023-0.586-0.061-1.014-0.256-1.287
	c-0.197-0.271-0.453-0.303-0.775-0.09S104.33,24.582,104.097,25.549z"/>
<path fill="#FFFFFF" stroke="#FFFFFF" stroke-width="0.9651" stroke-miterlimit="10" d="M91.296,47.15l1.996,0.235
	c-0.221,1.248-0.777,2.225-1.675,2.93c-0.899,0.707-2.003,1.06-3.312,1.06c-1.64,0-2.957-0.485-3.953-1.457
	c-0.997-0.973-1.494-2.366-1.494-4.18c0-1.173,0.213-2.197,0.643-3.078c0.428-0.882,1.081-1.539,1.955-1.98
	c0.877-0.438,1.831-0.657,2.861-0.657c1.301,0,2.365,0.298,3.191,0.893c0.829,0.597,1.359,1.445,1.589,2.543l-1.97,0.277
	c-0.191-0.729-0.523-1.279-1-1.647c-0.478-0.369-1.056-0.555-1.732-0.555c-1.021,0-1.852,0.333-2.49,0.999
	c-0.641,0.664-0.959,1.717-0.959,3.157c0,1.459,0.309,2.518,0.924,3.179c0.615,0.663,1.422,0.995,2.413,0.995
	c0.796,0,1.464-0.224,1.997-0.667C90.816,48.751,91.154,48.071,91.296,47.15z"/>
<path fill="#FFFFFF" stroke="#FFFFFF" stroke-width="0.9651" stroke-miterlimit="10" d="M94.273,45.697
	c0-2.013,0.619-3.5,1.852-4.468c1.031-0.808,2.285-1.207,3.766-1.207c1.646,0,2.992,0.487,4.039,1.467
	c1.043,0.979,1.566,2.33,1.566,4.056c0,1.397-0.23,2.498-0.693,3.298c-0.461,0.801-1.137,1.426-2.018,1.866
	c-0.885,0.444-1.85,0.666-2.895,0.666c-1.678,0-3.033-0.489-4.064-1.461C94.79,48.938,94.273,47.531,94.273,45.697z M96.361,45.697
	c0,1.392,0.334,2.434,1.004,3.124c0.668,0.692,1.51,1.042,2.525,1.042c1.006,0,1.848-0.35,2.516-1.048
	c0.668-0.693,1.004-1.752,1.004-3.179c0-1.345-0.338-2.362-1.01-3.053c-0.674-0.693-1.508-1.04-2.51-1.04
	c-1.016,0-1.857,0.344-2.525,1.035C96.695,43.265,96.361,44.307,96.361,45.697z"/>
<path fill="#FFFFFF" stroke="#FFFFFF" stroke-width="0.9651" stroke-miterlimit="10" d="M107.855,51.13V40.266h1.826v1.646
	c0.465-0.771,0.895-1.278,1.289-1.521c0.396-0.247,0.83-0.369,1.305-0.369c0.684,0,1.379,0.195,2.088,0.591l-0.701,1.708
	c-0.494-0.265-0.99-0.398-1.49-0.398c-0.443,0-0.84,0.122-1.193,0.363c-0.355,0.242-0.607,0.58-0.754,1.009
	c-0.229,0.653-0.344,1.372-0.344,2.149v5.687H107.855z"/>
<path fill="#FFFFFF" stroke="#FFFFFF" stroke-width="0.9651" stroke-miterlimit="10" d="M115.568,51.13V40.266h1.828v1.545
	c0.879-1.196,2.152-1.789,3.814-1.789c0.719,0,1.381,0.117,1.99,0.351c0.605,0.234,1.057,0.545,1.357,0.926
	c0.301,0.382,0.512,0.835,0.629,1.361c0.078,0.341,0.113,0.938,0.113,1.79v6.681h-2.027v-6.607c0-0.752-0.082-1.312-0.242-1.684
	c-0.152-0.372-0.436-0.67-0.836-0.891s-0.875-0.332-1.416-0.332c-0.865,0-1.611,0.248-2.238,0.745
	c-0.629,0.499-0.941,1.443-0.941,2.834v5.935H115.568z"/>
<path fill="#FFFFFF" stroke="#FFFFFF" stroke-width="0.9651" stroke-miterlimit="10" d="M136.617,47.63l2.094,0.236
	c-0.33,1.11-0.941,1.975-1.838,2.586c-0.891,0.615-2.035,0.922-3.428,0.922c-1.752,0-3.143-0.489-4.168-1.466
	c-1.023-0.981-1.537-2.352-1.537-4.119c0-1.827,0.518-3.246,1.557-4.257c1.035-1.008,2.381-1.511,4.035-1.511
	c1.602,0,2.91,0.492,3.926,1.481s1.521,2.379,1.521,4.175c0,0.105-0.002,0.272-0.01,0.489h-8.934
	c0.074,1.196,0.451,2.108,1.117,2.742c0.668,0.637,1.504,0.953,2.502,0.953c0.746,0,1.383-0.181,1.91-0.535
	C135.888,48.973,136.306,48.405,136.617,47.63z M129.949,44.656h6.691c-0.094-0.918-0.348-1.6-0.771-2.058
	c-0.645-0.711-1.482-1.065-2.514-1.065c-0.932,0-1.715,0.284-2.352,0.851C130.369,42.947,130.015,43.705,129.949,44.656z"/>
<path fill="#FFFFFF" stroke="#FFFFFF" stroke-width="0.9651" stroke-miterlimit="10" d="M141.238,51.13V40.266h1.832v1.646
	c0.463-0.771,0.893-1.278,1.289-1.521c0.395-0.247,0.828-0.369,1.301-0.369c0.686,0,1.381,0.195,2.088,0.591l-0.697,1.708
	c-0.498-0.265-0.994-0.398-1.492-0.398c-0.443,0-0.842,0.122-1.195,0.363c-0.354,0.242-0.607,0.58-0.756,1.009
	c-0.229,0.653-0.34,1.372-0.34,2.149v5.687H141.238z"/>
</svg>
