<?xml version="1.0" encoding="utf-8"?>
<!-- Generator: Adobe Illustrator 15.1.0, SVG Export Plug-In . SVG Version: 6.00 Build 0)  -->
<!DOCTYPE svg PUBLIC "-//W3C//DTD SVG 1.1//EN" "http://www.w3.org/Graphics/SVG/1.1/DTD/svg11.dtd">
<svg version="1.1" id="Layer_1" xmlns="http://www.w3.org/2000/svg" xmlns:xlink="http://www.w3.org/1999/xlink" x="0px" y="0px"
	 width="25px" height="25px" viewBox="0 0 25 25" enable-background="new 0 0 25 25" xml:space="preserve">
<g>
	<path fill="#DFEEFA" d="M12.44,24.162c-6.43,0-11.662-5.231-11.662-11.662C0.778,6.07,6.01,0.838,12.44,0.838
		c6.431,0,11.663,5.231,11.663,11.662C24.103,18.931,18.871,24.162,12.44,24.162z"/>
	<path fill="#5C9CCC" d="M12.44,1.04c6.32,0,11.461,5.142,11.461,11.461c0,6.319-5.142,11.46-11.461,11.46
		c-6.319,0-11.46-5.142-11.46-11.46C0.979,6.181,6.121,1.04,12.44,1.04 M12.44,0.637C5.889,0.637,0.577,5.949,0.577,12.5
		c0,6.551,5.312,11.863,11.863,11.863S24.304,19.052,24.304,12.5C24.304,5.949,18.991,0.637,12.44,0.637L12.44,0.637z"/>
</g>
<linearGradient id="SVGID_1_" gradientUnits="userSpaceOnUse" x1="12.27" y1="24.3633" x2="12.27" y2="12.3921">
	<stop  offset="0" style="stop-color:#EFF9FE"/>
	<stop  offset="0.4041" style="stop-color:#E5F5FD"/>
	<stop  offset="1" style="stop-color:#CFEDFC"/>
</linearGradient>
<path fill="url(#SVGID_1_)" d="M0.579,12.392h23.382c0,0,0,11.703-11.521,11.972c0,0-10.564,0.269-11.621-11.805"/>
<g>
	<path fill="#7BB7E4" d="M12.44,1.04c6.32,0,11.461,5.142,11.461,11.461c0,6.319-5.142,11.46-11.461,11.46
		c-6.319,0-11.46-5.142-11.46-11.46C0.979,6.181,6.121,1.04,12.44,1.04 M12.44,0.637C5.889,0.637,0.577,5.949,0.577,12.5
		c0,6.551,5.312,11.863,11.863,11.863S24.304,19.052,24.304,12.5C24.304,5.949,18.991,0.637,12.44,0.637L12.44,0.637z"/>
</g>
<g>
	<path fill="#2E6E9F" d="M10.664,15.889l-0.066-0.625c-0.197-1.273,0.395-2.715,2.039-4.157c1.479-1.273,2.301-2.211,2.301-3.292
		c0-1.226-1.053-2.042-3.123-2.066c-1.183,0-2.499,0.288-3.32,0.745L7.706,4.979c1.117-0.577,2.958-0.961,4.701-0.961
		c3.781,0,5.49,1.706,5.49,3.533c0,1.633-1.249,2.812-2.826,4.181c-1.447,1.249-1.973,2.331-1.875,3.555l0.066,0.602H10.664z
		 M9.975,19.276c0-0.888,0.822-1.514,1.939-1.514c1.183,0,1.939,0.626,1.939,1.514c0,0.842-0.756,1.489-1.973,1.489
		C10.763,20.766,9.975,20.118,9.975,19.276z"/>
</g>
</svg>
